<?xml version="1.0" encoding="utf-8"?>
<!-- Generator: Adobe Illustrator 24.1.2, SVG Export Plug-In . SVG Version: 6.00 Build 0)  -->
<svg version="1.1" id="Logo_1_" xmlns="http://www.w3.org/2000/svg" xmlns:xlink="http://www.w3.org/1999/xlink" x="0px" y="0px"
	 viewBox="0 0 998.6 383.1" style="enable-background:new 0 0 998.6 383.1;" xml:space="preserve">
<style type="text/css">
	.st0{fill:#00843D;}
	.st1{fill:#E4002B;}
	.st2{fill:#FFFFFF;}
</style>
<g id="Flag_Complete">
	<g id="Flag">
		<path class="st0" d="M516.4,30.8l-54.3,334c0,0,72.9-63.2,247.7-2.9c120.9,38,202.3,18,227.2-6.9L516.4,30.8z"/>
		<path class="st1" d="M517.5,22.5c0,0,88.3-50.6,238.9,0c144.3,48.3,213.9,18.9,242.3-2.9l-57.1,329.5L517.5,22.5z"/>
	</g>
	<g id="Letters_1_">
		<path class="st2" d="M530.4,130.4h107.2l-4.9,30.9h-34.1L583,247.4h-38.6l15-85.8l-34.9,0.1L530.4,130.4L530.4,130.4z"/>
		<path class="st2" d="M629.9,247.4l20.4-115.9c30,0.6,40.5-5.2,47.4,14.4l6.9,56.4l27-57.6c0,0,6.2-13.9,21.4-13.4l30.9,1
			l-19.5,115.3h-35.8l15-71.4l-33,71.4H692c0,0-8.6,1.7-11.4-18.6l-5.6-48.9l-10.5,67.5L629.9,247.4z"/>
		<path class="st2" d="M780.1,247.4l20.4-115.9c30,0.6,40.5-5.2,47.4,14.4l6.9,56.4l27-57.6c0,0,6.2-13.9,21.4-13.4l30.9,1
			l-19.5,115.3h-35.8l15-71.4l-33,71.4h-18.4c0,0-8.6,1.7-11.4-18.6l-5.6-48.9l-10.5,67.5L780.1,247.4z"/>
	</g>
</g>
<g id="Letters">
	<path d="M119.2,119.4l-6.6,14.3c0,0-21.1-28.3-59.4-11.7c-40.6,22.9-48.6,80.9-20.3,93.2c0,0,18,12.3,52.6,0l8-40.6l14-0.6
		l-8.9,48.3c0,0-8.3,4.6-50.9,8.6c0,0-47.8-4.9-47.8-47.7s39.5-64.3,39.5-64.3S72.3,96.5,119.2,119.4z"/>
	<path d="M132,150.6c0,0-6.9,56.3-14.9,79.7c0,0,4.6-2.6,13.7,0l7.8-44.3c0,0,9.1-31.7,29.4-21.1l4-14.3c0,0-8-7.7-29.4,14.6
		l3.1-14.3C145.8,150.9,140.9,152.3,132,150.6z"/>
	<path d="M198.3,151c0,0-22.9,70.3-1.4,70.3c18.3,0,26.3-5.7,30.9-18.9l10.8-51.4h12.9c0,0-15.4,63.1-14.9,79.4
		c-4.4-1.6-9.3-1.6-13.7,0l3.1-12c0,0-16.7,19.7-38.3,13.4c-12.2-4.1-14.5-27.1-12-39.8c2-9.3,8.9-41.1,8.9-41.1H198.3z"/>
	<path d="M338.4,174.3c0,0-0.6-22.9-22-27.4c-11.4-1.9-30.1,6.1-36.3,16.6l3.7-15c-2.6,1.6-15.1,0.9-15.1,0.9
		c-1.4,25.9-23.4,123-23.4,123c5.7-2,14.8,0,14.8,0l10-56c2.9,3.7,18.6,26.3,45.1,7.7S338.4,174.3,338.4,174.3z M315.8,205.5
		c0,0-17.6,32.4-35.7,9.7c0,0-7.4-8-2.9-27.4c0,0,11.5-40.8,36-29.4C313.2,158.3,331.2,169.7,315.8,205.5L315.8,205.5z"/>
	<path d="M396.9,146.9c-43.7-4.3-49.4,54-49.4,54c1.2,20.9,14.3,33.4,46.9,28c32.6-5.4,36.3-43.4,36.3-43.4S440.6,151.2,396.9,146.9
		z M408.1,209.6c0,0-16.3,25.6-34.9,11c-15.5-13.1-10-42.9,3.7-57.4c0,0,20-20.6,33.7-0.3C424.4,183.2,408.1,209.6,408.1,209.6z"/>
</g>
</svg>
