<svg xmlns="http://www.w3.org/2000/svg" viewBox="0 0 998.64 383.11"><defs><style>.cls-1{fill:#00843d;}.cls-2{fill:#e4002b;}.cls-3{fill:#fff;}</style></defs><title>logo_tmm2</title><g id="Layer_2" data-name="Layer 2"><g id="BrandBlack"><g id="Brand"><g id="Flag"><path id="GreenFlag" class="cls-1" d="M516.37,30.77l-54.29,334s72.86-63.15,247.74-2.86c120.87,38,202.3,18,227.16-6.86Z"/><path id="RedFlag" class="cls-2" d="M517.51,22.48s88.29-50.58,238.88,0c144.3,48.29,213.9,18.86,242.25-2.86L941.55,349.08Z"/></g><g id="TMM"><polygon id="T" class="cls-3" points="530.44 130.35 637.59 130.35 632.66 161.21 598.59 161.21 582.95 247.36 544.37 247.36 559.37 161.52 524.44 161.64 530.44 130.35"/><path id="M" class="cls-3" d="M629.88,247.36l20.36-115.94c30,.64,40.5-5.15,47.36,14.36l6.86,56.36,27-57.65s6.22-13.94,21.43-13.4,30.86,1,30.86,1l-19.5,115.3H728.46l15-71.37-33,71.37H692s-8.57,1.71-11.36-18.65-5.57-48.86-5.57-48.86l-10.5,67.54Z"/><path id="M-2" data-name="M" class="cls-3" d="M780.1,247.36l20.36-115.94c30,.64,40.5-5.15,47.36,14.36l6.86,56.36,27-57.65s6.22-13.94,21.43-13.4,30.86,1,30.86,1l-19.5,115.3H878.68l15-71.37-33,71.37H842.25s-8.57,1.71-11.36-18.65-5.57-48.86-5.57-48.86l-10.5,67.54Z"/></g><g id="Grupo"><path id="G" class="cls-3" d="M119.18,119.35l-6.57,14.28s-21.14-28.29-59.43-11.71C12.6,144.78,4.6,202.78,32.89,215.07c0,0,18,12.29,52.58,0l8-40.58,14-.57-8.86,48.29s-8.29,4.58-50.86,8.58c0,0-47.75-4.86-47.75-47.72s39.46-64.3,39.46-64.3S72.32,96.49,119.18,119.35Z"/><path id="r" class="cls-3" d="M132,150.59s-6.86,56.29-14.86,79.72c0,0,4.57-2.57,13.72,0L138.61,186s9.15-31.72,29.44-21.15l4-14.28s-8-7.72-29.44,14.57l3.15-14.29S140.9,152.3,132,150.59Z"/><path id="u" class="cls-3" d="M198.33,151s-22.89,70.27-1.42,70.29c18.28,0,26.28-5.71,30.86-18.86L238.62,151h12.86s-15.43,63.15-14.86,79.43a20.73,20.73,0,0,0-13.71,0l3.14-12s-16.65,19.72-38.33,13.43-14-30.48-12-39.81S184.62,151,184.62,151Z"/><path id="p" class="cls-3" d="M338.35,174.3s-.57-22.86-22-27.43-36.29,16.58-36.29,16.58l3.71-15c-2.57,1.56-15.14.86-15.14.86-1.43,25.85-23.43,123-23.43,123,5.71-2,14.85,0,14.85,0l10-56c2.85,3.71,18.57,26.29,45.14,7.71S338.35,174.3,338.35,174.3Zm-22.58,31.15s-17.62,32.43-35.71,9.72c0,0-7.43-8-2.86-27.44,0,0,11.48-40.75,36-29.43C313.2,158.3,331.2,169.73,315.77,205.45Z"/><path id="o" class="cls-3" d="M396.93,146.87c-43.72-4.28-49.44,54-49.44,54,1.15,20.86,14.29,33.43,46.86,28s36.29-43.43,36.29-43.43S440.64,151.16,396.93,146.87Zm11.14,62.73s-16.29,25.57-34.86,11-4.86-48.29,3.71-57.43c0,0,20-20.57,33.72-.29S408.07,209.6,408.07,209.6Z"/></g></g></g></g></svg>