<?xml version="1.0" encoding="UTF-8" standalone="no"?>
<!-- Created with Inkscape (http://www.inkscape.org/) -->

<svg class="hover-fillLight" version="1.1" id="svg2" width="244.95465" height="244.95435" viewBox="0 0 244.95465 244.95434" xmlns="http://www.w3.org/2000/svg" xmlns:svg="http://www.w3.org/2000/svg">
   <g
   id="g10"
   transform="matrix(1.3333333,0,0,-1.3333333,-320.00001,570.81559)">
   <path
      d="m 419.123,248.989 h -174.53 v 14.263 h 174.53 z M 317.968,267.845 H 270.36 v 23.905 h 47.608 z m 75.389,0 h -47.609 v 23.905 h 47.609 z M 253.347,383.877 H 410.369 V 267.845 H 397.95 v 26.201 c 0,1.268 -1.028,2.297 -2.297,2.297 h -52.202 c -1.268,0 -2.296,-1.029 -2.296,-2.297 v -26.201 h -18.594 v 26.201 c 0,1.268 -1.028,2.297 -2.297,2.297 h -52.201 c -1.269,0 -2.296,-1.029 -2.296,-2.297 v -26.201 h -12.42 z m 0,10.878 78.511,28.616 78.511,-28.616 V 388.47 H 253.347 Z m 168.072,-126.91 h -6.457 v 128.517 c 0,0.965 -0.604,1.827 -1.51,2.158 l -80.808,29.453 c -0.508,0.185 -1.065,0.185 -1.573,0 L 250.265,398.52 c -0.908,-0.331 -1.511,-1.193 -1.511,-2.158 V 267.845 h -6.458 c -1.268,0 -2.296,-1.029 -2.296,-2.297 v -18.855 c 0,-1.268 1.028,-2.297 2.296,-2.297 h 179.123 c 1.268,0 2.297,1.029 2.297,2.297 v 18.855 c 0,1.268 -1.029,2.297 -2.297,2.297"
      style="fill:#3e3e3e;fill-opacity:1;fill-rule:nonzero;stroke:none"
      id="path366"
      clip-path="url(#clipPath1412)" 
      class="hover-fillLight"/>
   <path
      d="m 308.296,346.445 h -37.937 v 12.419 h 37.937 z m 85.061,0 h -37.938 v 12.419 h 37.938 z m -37.938,-4.592 h 37.938 v -12.42 h -37.938 z m -42.53,17.011 h 37.937 v -12.419 h -37.937 z m 37.937,-29.431 h -37.937 v 12.42 h 37.937 z m -80.467,12.42 h 37.937 v -12.42 h -37.937 z m -2.296,-17.013 h 127.59 c 1.269,0 2.297,1.028 2.297,2.297 v 34.024 c 0,1.269 -1.028,2.296 -2.297,2.296 h -127.59 c -1.269,0 -2.296,-1.027 -2.296,-2.296 v -34.024 c 0,-1.269 1.027,-2.297 2.296,-2.297"
      style="fill:#3e3e3e;fill-opacity:1;fill-rule:nonzero;stroke:none"
      id="path368"
      clip-path="url(#clipPath1406)" 
      class="hover-fillLight"/>
   <g
      id="g370"
      transform="translate(339.23,404.4189)"
      clip-path="url(#clipPath1400)">
      <path
         d="m 0,0 h -14.744 c -1.269,0 -2.297,-1.027 -2.297,-2.296 0,-1.268 1.028,-2.297 2.297,-2.297 H 0 c 1.268,0 2.296,1.029 2.296,2.297 C 2.296,-1.027 1.268,0 0,0"
         style="fill:#3e3e3e;fill-opacity:1;fill-rule:nonzero;stroke:none"
         id="path372" 
         class="hover-fillLight"/>
   </g>
   </g>
</svg>
