<?xml version="1.0" encoding="UTF-8" standalone="no"?>
<!-- Created with Inkscape (http://www.inkscape.org/) -->

<svg
   width="123.825mm"
   height="95.72625mm"
   viewBox="0 0 123.825 95.72625"
   version="1.1"
   id="svg462"
   xmlns:inkscape="http://www.inkscape.org/namespaces/inkscape"
   xmlns:sodipodi="http://sodipodi.sourceforge.net/DTD/sodipodi-0.dtd"
   xmlns="http://www.w3.org/2000/svg"
   xmlns:svg="http://www.w3.org/2000/svg">
  <sodipodi:namedview
     id="namedview464"
     pagecolor="#ffffff"
     bordercolor="#000000"
     borderopacity="0.25"
     inkscape:showpageshadow="2"
     inkscape:pageopacity="0.0"
     inkscape:pagecheckerboard="0"
     inkscape:deskcolor="#d1d1d1"
     inkscape:document-units="mm"
     showgrid="false" />
  <defs
     id="defs459" />
  <g
     inkscape:label="Capa 1"
     inkscape:groupmode="layer"
     id="layer1"
     transform="translate(-37.113713,-106.47616)">
    <g
       id="g4"
       inkscape:export-filename="g4.svg"
       inkscape:export-xdpi="96"
       inkscape:export-ydpi="96"
       transform="matrix(0.52916666,0,0,0.52916666,-86.182118,28.318242)">
				<path
   fill="#616266"
   d="m 391.1,252.6 c 1.8,0 3.5,0.1 5.1,0.4 l -12.4,31.5 c -0.5,0 -1.2,0 -2.1,0 -9,0 -41.5,1 -80.5,14.4 v 0 0 c -0.3,0.1 -32.7,12.6 -49.4,21.7 l -3.9,-7 c 8.1,-4.3 50.4,-26.7 55.6,-29.8 0.7,-0.4 15,-8 32.7,-15.6 C 360,258 379,252.6 391.1,252.6 m 0,-1.4 c -30.1,0 -88.3,31.4 -88.3,31.4 C 297.3,285.9 246,313 246,313 l 5.3,9.5 c 16.3,-9.2 50.4,-22.3 50.4,-22.3 38.5,-13.2 70.3,-14.3 80,-14.3 2,0 3,0 3,0 l 13.4,-34 c -2.1,-0.5 -4.5,-0.7 -7,-0.7 z"
   id="path2" />

			</g>
    <g
       id="g12"
       transform="matrix(0.52916666,0,0,0.52916666,-86.182118,28.318242)">
				<path
   fill="#616266"
   d="m 408.4,188.1 c 7.9,0 12.7,0.9 12.7,0.9 l -7.8,19.7 c -4.7,-1.2 -9.7,-1.7 -14.2,-1.7 -9.6,0 -17.3,1.9 -17.3,1.9 -49.3,9.2 -135.6,82 -135.6,82 L 247,287 c 72.3,-76.6 126.8,-93 126.8,-93 13.6,-4.7 25.9,-5.9 34.6,-5.9 m 0,-1.4 c -8.2,0 -21,1 -35,6 -0.9,0.3 -14.4,4.5 -36.6,17.9 C 316,223.1 283.4,246.4 246,286 l -0.3,0.3 -0.1,0.4 -0.8,3.9 -0.8,4 3.1,-2.6 c 0.2,-0.2 21.9,-18.4 49.2,-37.5 25.2,-17.6 60.5,-39.5 85.7,-44.2 v 0 0 c 0.1,0 7.7,-1.8 17,-1.8 5.1,0 9.8,0.5 13.9,1.6 l 1.2,0.3 0.5,-1.2 7.8,-19.7 0.6,-1.6 -1.7,-0.3 c -0.1,0.1 -5,-0.9 -12.9,-0.9 z"
   id="path10" />

			</g>
    <g
       id="g16"
       transform="matrix(0.52916666,0,0,0.52916666,-86.182118,28.318242)">
				<path
   fill="#616266"
   d="m 437.9,149.3 -11.6,28.5 c -5.1,-1.4 -10.8,-1.8 -15.7,-1.8 -6.5,0 -11.5,0.7 -11.5,0.7 -65.7,7.1 -139.2,82.8 -139.2,82.8 13.3,-24.4 67.8,-64.9 67.8,-64.9 53.1,-40 110.2,-45.3 110.2,-45.3 m 2.2,-1.6 -2.3,0.2 c -0.1,0 -14.7,1.4 -35.5,7.7 -19.2,5.8 -47.8,17.1 -75.4,37.9 -2.2,1.7 -54.9,40.9 -68.2,65.4 l -4.9,9 7.1,-7.4 c 0.2,-0.2 18.6,-19.1 44.8,-38.7 24.1,-18 59.9,-40.2 93.5,-43.8 0.1,0 5,-0.7 11.3,-0.7 6,0 11.2,0.6 15.3,1.8 l 1.2,0.3 0.5,-1.2 11.6,-28.5 z"
   id="path14" />

			</g>
    <g
       id="g20"
       transform="matrix(0.52916666,0,0,0.52916666,-86.182118,28.318242)">
				<path
   fill="#616266"
   d="m 310.2,198.1 c -21,14.4 -34.5,28.6 -39.7,34.5 l -0.2,-14.8 v -1.6 l -1.6,0.2 -3.9,0.6 v -3.8 c 9.1,-7.1 22.3,-10.9 31.7,-12.9 5.4,-1.2 10.2,-1.8 13.7,-2.2 m 5.3,-1.9 c 0,0 -34,1.7 -52.2,16.3 v 6.1 l 5.5,-0.8 0.3,18.5 c 0.1,0 16,-20.3 46.4,-40.1 z"
   id="path18" />

			</g>
    <g
       id="g24"
       transform="matrix(0.52916666,0,0,0.52916666,-86.182118,28.318242)">
				<path
   fill="#616266"
   d="M 434.5,206.3 465,206.8 415.9,327.2 248.1,327 c 98.8,-18.1 144.2,-19.2 144.6,-19.2 h 0.9 l 0.3,-0.9 40.6,-100.6 m -1,-1.4 -40.8,101.5 c 0,0 -49.2,1 -159.7,22 l 183.8,0.2 50.2,-123.1 z"
   id="path22" />

			</g>
    <path
       fill="#616266"
       d="m 123.94996,145.21116 c 3.4925,0 5.3975,0.52916 5.3975,0.52916 l -4.28625,10.16 c -1.16416,-0.26458 -2.54,-0.37042 -3.96875,-0.37042 -4.55083,0 -9.57791,1.05834 -9.57791,1.05834 -17.303751,3.33375 -67.257086,33.54916 -67.257086,33.54916 l -0.423334,-0.9525 c 19.632084,-17.67416 53.710419,-36.30083 53.710419,-36.30083 11.959161,-6.45583 21.060831,-7.67291 26.405411,-7.67291 m 0,-0.74084 c -5.60916,0 -14.76375,1.32292 -26.670001,7.72584 -0.37041,0.21166 -34.395829,18.89124 -53.869163,36.40666 l -0.423332,0.37042 0.211666,0.47625 0.423334,0.9525 0.370416,0.74083 0.687916,-0.42333 c 0.47625,-0.3175 50.059163,-30.1625 66.992504,-33.44334 0.0529,0 5.02708,-1.05833 9.41916,-1.05833 1.48167,0 2.75167,0.10584 3.75709,0.37042 l 0.635,0.15874 0.26458,-0.58209 4.28625,-10.15999 0.3175,-0.79375 -0.79375,-0.21167 c -0.10584,0 -2.06375,-0.52917 -5.60917,-0.52917 z"
       id="path6"
       style="stroke-width:0.529166"
       inkscape:export-filename="astillero.svg"
       inkscape:export-xdpi="96"
       inkscape:export-ydpi="96" />
  </g>
</svg>
