<?xml version="1.0" encoding="UTF-8" standalone="no"?>
<!-- Created with Inkscape (http://www.inkscape.org/) -->

<svg
   version="1.1"
   id="svg2"
   width="229.58398"
   height="251.07764"
   viewBox="0 0 229.58398 251.07763"
   sodipodi:docname="Marine port icons.ai"
   xmlns:inkscape="http://www.inkscape.org/namespaces/inkscape"
   xmlns:sodipodi="http://sodipodi.sourceforge.net/DTD/sodipodi-0.dtd"
   xmlns="http://www.w3.org/2000/svg"
   xmlns:svg="http://www.w3.org/2000/svg">
  <defs
     id="defs6">
    <clipPath
       clipPathUnits="userSpaceOnUse"
       id="clipPath1106">
      <g
         id="g1110"
         transform="translate(-994.6157,-1120.106)">
        <path
           d="M 0,2000 H 2000 V 0 H 0 Z"
           id="path1108" />
      </g>
    </clipPath>
    <clipPath
       clipPathUnits="userSpaceOnUse"
       id="clipPath1112">
      <g
         id="g1116"
         transform="translate(-1014.2266,-1063.2075)">
        <path
           d="M 0,2000 H 2000 V 0 H 0 Z"
           id="path1114" />
      </g>
    </clipPath>
    <clipPath
       clipPathUnits="userSpaceOnUse"
       id="clipPath1118">
      <g
         id="g1122"
         transform="translate(-979.1387,-1067.3413)">
        <path
           d="M 0,2000 H 2000 V 0 H 0 Z"
           id="path1120" />
      </g>
    </clipPath>
    <clipPath
       clipPathUnits="userSpaceOnUse"
       id="clipPath1124">
      <g
         id="g1128"
         transform="translate(-1022.2295,-1089.1177)">
        <path
           d="M 0,2000 H 2000 V 0 H 0 Z"
           id="path1126" />
      </g>
    </clipPath>
    <clipPath
       clipPathUnits="userSpaceOnUse"
       id="clipPath1130">
      <g
         id="g1134"
         transform="translate(-994.6157,-970.9775)">
        <path
           d="M 0,2000 H 2000 V 0 H 0 Z"
           id="path1132" />
      </g>
    </clipPath>
    <clipPath
       clipPathUnits="userSpaceOnUse"
       id="clipPath1136">
      <g
         id="g1140"
         transform="translate(-992.1348,-985.8799)">
        <path
           d="M 0,2000 H 2000 V 0 H 0 Z"
           id="path1138" />
      </g>
    </clipPath>
  </defs>
  <sodipodi:namedview
     id="namedview4"
     pagecolor="#ffffff"
     bordercolor="#000000"
     borderopacity="0.25"
     inkscape:showpageshadow="2"
     inkscape:pageopacity="0.0"
     inkscape:pagecheckerboard="0"
     inkscape:deskcolor="#d1d1d1"
     showgrid="false" />
  <g
     id="g10"
     inkscape:groupmode="layer"
     inkscape:label="Page 1"
     transform="matrix(1.3333333,0,0,-1.3333333,-1211.362,1513.1729)">
    <g
       id="g446"
       transform="translate(992.1348,985.8799)"
       clip-path="url(#clipPath1136)"
       inkscape:export-filename="astillero2.svg"
       inkscape:export-xdpi="96"
       inkscape:export-ydpi="96">
      <path
         d="m 0,0 c 1.502,5.63 0.122,10.146 -1.238,14.55 -0.931,3.018 -1.895,6.138 -1.895,9.706 0,3.095 2.518,5.613 5.614,5.613 3.096,0 5.614,-2.518 5.614,-5.613 C 8.095,20.688 7.132,17.568 6.2,14.55 4.841,10.146 3.46,5.63 4.962,0 4.137,0.021 3.31,0.035 2.481,0.035 1.652,0.035 0.825,0.021 0,0 m -53.492,-1.444 c -2.316,2.147 -4.711,4.368 -6.494,7.458 -1.548,2.68 -0.626,6.12 2.055,7.668 0.865,0.499 1.826,0.755 2.798,0.755 0.488,0 0.979,-0.064 1.462,-0.194 1.449,-0.389 2.659,-1.317 3.409,-2.616 1.783,-3.089 2.509,-6.273 3.211,-9.353 1.021,-4.478 2.078,-9.063 6.159,-13.176 -1.443,-0.784 -2.866,-1.606 -4.267,-2.469 -1.521,5.594 -4.964,8.803 -8.333,11.927 M 52.013,2.274 c 0.702,3.08 1.427,6.263 3.212,9.353 0.75,1.299 1.96,2.227 3.409,2.616 1.446,0.388 2.961,0.189 4.26,-0.561 2.68,-1.548 3.601,-4.989 2.053,-7.668 -1.783,-3.09 -4.176,-5.311 -6.493,-7.458 -3.369,-3.124 -6.812,-6.333 -8.333,-11.927 -1.4,0.863 -2.824,1.685 -4.267,2.469 4.081,4.113 5.137,8.698 6.159,13.176 m 2.212,-18.328 c 0.934,5.266 3.855,7.998 7.352,11.242 2.445,2.269 5.219,4.839 7.348,8.529 2.814,4.874 1.138,11.128 -3.736,13.943 -4.873,2.813 -11.127,1.137 -13.942,-3.737 -2.131,-3.689 -2.971,-7.375 -3.713,-10.628 -1.058,-4.647 -1.964,-8.539 -6.048,-11.98 -9.829,4.661 -20.51,7.538 -31.629,8.422 -1.847,5.051 -0.68,8.886 0.732,13.458 0.984,3.188 2.099,6.801 2.099,11.061 0,5.628 -4.579,10.206 -10.207,10.206 -5.628,0 -10.207,-4.578 -10.207,-10.206 0,-4.26 1.115,-7.873 2.1,-11.061 1.411,-4.572 2.579,-8.407 0.731,-13.458 -11.119,-0.884 -21.8,-3.761 -31.629,-8.422 -4.084,3.441 -4.989,7.333 -6.049,11.981 -0.741,3.252 -1.582,6.938 -3.712,10.627 -2.813,4.873 -9.067,6.55 -13.943,3.737 -4.874,-2.815 -6.55,-9.069 -3.735,-13.943 2.129,-3.69 4.902,-6.26 7.347,-8.529 3.498,-3.243 6.418,-5.975 7.354,-11.242 -7.676,-5.326 -14.592,-11.886 -20.48,-19.558 -0.772,-1.006 -0.582,-2.449 0.425,-3.22 1.004,-0.772 2.447,-0.583 3.219,0.424 16.509,21.512 41.504,33.85 68.579,33.85 27.074,0 52.07,-12.338 68.58,-33.85 0.452,-0.59 1.133,-0.899 1.823,-0.899 0.488,0 0.979,0.155 1.396,0.475 1.006,0.771 1.197,2.214 0.424,3.22 -5.888,7.672 -12.804,14.231 -20.479,19.558"
         style="fill:#4d4d4d;fill-opacity:1;fill-rule:nonzero;stroke:none"
         id="path448" />
    </g>
    <g
       id="g450"
       transform="translate(994.6157,970.9775)"
       clip-path="url(#clipPath1130)">
      <path
         d="m 0,0 c -19.258,0 -37.65,-7.255 -51.791,-20.428 -0.928,-0.864 -0.979,-2.318 -0.114,-3.246 0.863,-0.928 2.317,-0.979 3.245,-0.114 3.413,3.179 7.093,5.984 10.979,8.409 l 4.548,-7.879 c 0.425,-0.737 1.198,-1.148 1.991,-1.148 0.39,0 0.785,0.098 1.146,0.307 1.099,0.635 1.475,2.039 0.841,3.137 l -4.548,7.877 c 9.621,5.174 20.332,8.084 31.407,8.438 v -17.461 c 0,-1.269 1.027,-2.296 2.296,-2.296 1.268,0 2.296,1.027 2.296,2.296 v 17.461 c 11.076,-0.354 21.787,-3.264 31.408,-8.438 l -4.548,-7.876 c -0.634,-1.098 -0.259,-2.502 0.841,-3.137 0.361,-0.209 0.755,-0.307 1.146,-0.307 0.793,0 1.565,0.411 1.99,1.148 l 4.549,7.878 c 3.886,-2.425 7.565,-5.23 10.978,-8.409 0.442,-0.412 1.004,-0.616 1.564,-0.616 0.615,0 1.229,0.245 1.681,0.73 0.865,0.928 0.813,2.382 -0.114,3.246 C 37.651,-7.255 19.258,0 0,0"
         style="fill:#4d4d4d;fill-opacity:1;fill-rule:nonzero;stroke:none"
         id="path452" />
    </g>
    <g
       id="g454"
       transform="translate(1022.2295,1089.1177)"
       clip-path="url(#clipPath1124)">
      <path
         d="m 0,0 c -0.691,0 -1.347,-0.312 -1.782,-0.848 -6.357,-7.823 -15.773,-12.31 -25.832,-12.31 -10.06,0 -19.475,4.487 -25.83,12.31 C -53.88,-0.312 -54.535,0 -55.227,0 h -9.904 V 8.724 H 9.904 V 0 Z m -32.742,41.169 h 10.257 L 21.03,24.611 11.157,13.316 h -77.541 l -9.873,11.295 z m 72.71,-113.332 c -0.44,0.21 -27.065,13.534 -33.198,16.655 4.919,6.98 7.727,15.42 7.727,24.25 v 41.417 l 12.162,13.913 c 0.495,0.566 0.682,1.338 0.5,2.067 -0.182,0.73 -0.71,1.323 -1.412,1.591 l -46.994,17.882 c -0.26,0.099 -0.537,0.15 -0.816,0.15 h -11.102 c -0.279,0 -0.556,-0.051 -0.816,-0.15 L -80.974,27.73 c -0.702,-0.268 -1.23,-0.861 -1.412,-1.591 -0.182,-0.729 0.005,-1.501 0.5,-2.067 l 12.162,-13.913 v -41.417 c 0,-8.83 2.807,-17.27 7.727,-24.25 -6.134,-3.121 -32.76,-16.445 -33.2,-16.656 -7.371,-3.535 -18.511,-8.878 -18.511,-28.222 v -39.864 c 0,-1.269 1.028,-2.296 2.296,-2.296 1.269,0 2.297,1.027 2.297,2.296 v 39.864 c 0,16.453 8.819,20.682 15.905,24.081 0.45,0.216 28.766,14.397 34.12,17.122 3.767,-4.256 8.406,-7.786 13.729,-10.263 1.151,-0.537 2.516,-0.036 3.05,1.113 0.536,1.149 0.038,2.516 -1.112,3.051 -13.187,6.138 -21.708,19.494 -21.708,34.024 v 26.665 h 8.831 c 7.214,-8.376 17.606,-13.157 28.686,-13.157 11.081,0 21.472,4.781 28.687,13.157 h 8.831 v -26.665 c 0,-14.532 -8.522,-27.888 -21.711,-34.025 -1.15,-0.535 -1.649,-1.902 -1.113,-3.051 0.389,-0.837 1.218,-1.329 2.084,-1.329 0.323,0 0.653,0.07 0.967,0.216 5.323,2.477 9.965,6.007 13.732,10.264 5.354,-2.725 33.668,-16.906 34.118,-17.122 7.086,-3.398 15.907,-7.627 15.907,-24.081 v -39.864 c 0,-1.269 1.027,-2.296 2.296,-2.296 1.268,0 2.296,1.027 2.296,2.296 v 39.864 c 0,19.345 -11.14,24.687 -18.512,28.223"
         style="fill:#4d4d4d;fill-opacity:1;fill-rule:nonzero;stroke:none"
         id="path456" />
    </g>
    <g
       id="g458"
       transform="translate(979.1387,1067.3413)"
       clip-path="url(#clipPath1118)">
      <path
         d="m 0,0 c -2.279,0 -4.133,-1.854 -4.133,-4.134 0,-2.279 1.854,-4.133 4.133,-4.133 2.279,0 4.134,1.854 4.134,4.133 C 4.134,-1.854 2.279,0 0,0"
         style="fill:#4d4d4d;fill-opacity:1;fill-rule:nonzero;stroke:none"
         id="path460" />
    </g>
    <g
       id="g462"
       transform="translate(1014.2266,1063.2075)"
       clip-path="url(#clipPath1112)">
      <path
         d="m 0,0 c 0,2.279 -1.854,4.134 -4.133,4.134 -2.28,0 -4.134,-1.855 -4.134,-4.134 0,-2.279 1.854,-4.133 4.134,-4.133 C -1.854,-4.133 0,-2.279 0,0"
         style="fill:#4d4d4d;fill-opacity:1;fill-rule:nonzero;stroke:none"
         id="path464" />
    </g>
    <g
       id="g466"
       transform="translate(994.6157,1120.106)"
       clip-path="url(#clipPath1106)">
      <path
         d="m 0,0 5.581,-6.297 -1.426,-2.36 h -8.31 l -1.426,2.359 z M -7.416,-12.141 C -7,-12.83 -6.254,-13.25 -5.451,-13.25 H 5.45 c 0.804,0 1.55,0.42 1.966,1.108 l 2.97,4.915 c 0.52,0.861 0.42,1.959 -0.247,2.711 l -8.42,9.502 c -0.872,0.983 -2.566,0.983 -3.438,0 l -8.42,-9.502 c -0.666,-0.752 -0.766,-1.85 -0.246,-2.711 z"
         style="fill:#4d4d4d;fill-opacity:1;fill-rule:nonzero;stroke:none"
         id="path468" />
    </g>
  </g>
</svg>
