<?xml version="1.0" encoding="UTF-8" standalone="no"?>
<!-- Created with Inkscape (http://www.inkscape.org/) -->

<svg version="1.1"  id="svg2"  width="238.83069"  height="238.83069"  viewBox="0 0 238.83068 238.83068"  xmlns="http://www.w3.org/2000/svg"  xmlns:svg="http://www.w3.org/2000/svg">
  <g
     id="g10"
     transform="matrix(1.3333333,0,0,-1.3333333,-766.53224,1969.9866)">
    <g
       id="g108"
       transform="translate(749.4292,1302.96)"
       clip-path="url(#clipPath1814)">
      <path
         d="m 0,0 h -169.937 v 35.026 c 5.087,-0.403 7.865,-2.158 11.02,-4.151 3.672,-2.319 7.834,-4.948 15.77,-4.948 7.936,0 12.098,2.628 15.769,4.948 3.601,2.273 6.71,4.238 13.317,4.238 6.607,0 9.717,-1.965 13.318,-4.238 3.672,-2.319 7.834,-4.948 15.77,-4.948 7.937,0 12.098,2.629 15.77,4.948 3.6,2.273 6.71,4.238 13.317,4.238 6.609,0 9.719,-1.965 13.32,-4.238 3.672,-2.32 7.834,-4.948 15.771,-4.948 7.937,0 12.1,2.628 15.772,4.948 3.156,1.993 5.936,3.748 11.023,4.151 z m -154.235,81.212 69.266,14.814 69.267,-14.814 c -0.639,-29.229 -16.271,-45.1 -20.387,-48.78 -1.411,0.676 -2.684,1.479 -4.025,2.326 -3.672,2.319 -7.835,4.948 -15.772,4.948 -7.936,0 -12.098,-2.629 -15.769,-4.948 -3.601,-2.274 -6.71,-4.238 -13.318,-4.238 -6.607,0 -9.717,1.964 -13.318,4.238 -3.671,2.319 -7.834,4.948 -15.77,4.948 -7.936,0 -12.098,-2.629 -15.769,-4.948 -1.341,-0.847 -2.614,-1.651 -4.024,-2.326 -4.121,3.662 -19.744,19.455 -20.381,48.78 m 26.101,39.974 h 86.331 l 8.117,-31.431 -50.802,10.866 c -0.317,0.067 -0.644,0.067 -0.961,0 l -50.802,-10.866 z m 10.582,12.707 h 8.825 c 1.269,0 2.297,1.028 2.297,2.296 0,1.269 -1.028,2.297 -2.297,2.297 h -7.639 l 2.095,8.114 h 58.604 l 2.096,-8.114 h -7.639 c -1.269,0 -2.297,-1.028 -2.297,-2.297 0,-1.268 1.028,-2.296 2.297,-2.296 h 8.826 l 2.095,-8.114 h -69.359 z m 27.531,36.044 h 10.104 V 151.193 H -90.021 Z M 2.296,39.706 c -7.937,0 -12.099,-2.629 -15.772,-4.948 -3.601,-2.274 -6.711,-4.238 -13.319,-4.238 -1.605,0 -3,0.118 -4.25,0.326 6.411,6.363 19.957,23.24 19.957,52.219 0,1.083 -0.758,2.019 -1.816,2.246 l -15.761,3.371 -9.135,35.375 c -0.262,1.014 -1.176,1.722 -2.223,1.722 h -5.523 l -6.118,23.692 c -0.262,1.014 -1.176,1.722 -2.224,1.722 h -21.435 v 9.379 h 11.022 c 1.268,0 2.296,1.028 2.296,2.297 0,1.268 -1.028,2.296 -2.296,2.296 h -11.022 v 7.068 c 0,1.269 -1.029,2.297 -2.297,2.297 h -14.697 c -1.268,0 -2.296,-1.028 -2.296,-2.297 v -7.068 h -11.023 c -1.268,0 -2.296,-1.028 -2.296,-2.297 0,-1.268 1.028,-2.296 2.296,-2.296 h 11.023 v -9.379 h -21.436 c -1.048,0 -1.962,-0.708 -2.224,-1.722 l -6.118,-23.692 h -5.522 c -1.047,0 -1.962,-0.708 -2.224,-1.722 l -9.135,-35.375 -15.76,-3.371 c -1.059,-0.227 -1.817,-1.163 -1.817,-2.246 0,-28.978 13.545,-45.855 19.956,-52.219 -1.251,-0.208 -2.648,-0.326 -4.254,-0.326 -6.607,0 -9.717,1.964 -13.317,4.238 -3.672,2.319 -7.834,4.948 -15.769,4.948 -1.269,0 -2.297,-1.028 -2.297,-2.297 V -2.296 c 0,-1.269 1.028,-2.297 2.297,-2.297 H 2.296 c 1.269,0 2.297,1.028 2.297,2.297 v 39.705 c 0,1.269 -1.028,2.297 -2.297,2.297"
         style="fill:#3e3e3e;fill-opacity:1;fill-rule:nonzero;stroke:none"
         id="path110" />
    </g>
    <g
       id="g112"
       transform="translate(664.4604,1350.9658)"
       clip-path="url(#clipPath1808)">
      <path
         d="m 0,0 c 1.269,0 2.297,1.028 2.297,2.296 v 33.376 c 0,1.268 -1.028,2.296 -2.297,2.296 -1.268,0 -2.296,-1.028 -2.296,-2.296 V 2.296 C -2.296,1.028 -1.268,0 0,0"
         style="fill:#3e3e3e;fill-opacity:1;fill-rule:nonzero;stroke:none"
         id="path114" />
    </g>
    <g
       id="g116"
       transform="translate(701.7285,1414.042)"
       clip-path="url(#clipPath1802)">
      <path
         d="m 0,0 c 0,1.268 -1.028,2.296 -2.296,2.296 h -69.943 c -1.269,0 -2.297,-1.028 -2.297,-2.296 0,-1.269 1.028,-2.296 2.297,-2.296 H -2.296 C -1.028,-2.296 0,-1.269 0,0"
         style="fill:#3e3e3e;fill-opacity:1;fill-rule:nonzero;stroke:none"
         id="path118" />
    </g>
  </g>
</svg>
