<?xml version="1.0" encoding="UTF-8" standalone="no"?>
<!-- Created with Inkscape (http://www.inkscape.org/) -->

<svg  version="1.1"  id="svg2"  width="261.39075"  height="251.07861"  viewBox="0 0 261.39074 251.07861"  xmlns="http://www.w3.org/2000/svg"  xmlns:svg="http://www.w3.org/2000/svg">
  <g
     id="g10"
     transform="matrix(1.3333333,0,0,-1.3333333,-1636.7453,576.93986)">
    <g
       id="g344"
       transform="translate(1252.084,262.0029)"
       clip-path="url(#clipPath1448)">
      <path
         d="m 0,0 c -3.815,0 -6.919,3.104 -6.919,6.92 0,3.815 3.104,6.921 6.919,6.921 3.816,0 6.921,-3.106 6.921,-6.921 C 6.921,3.104 3.816,0 0,0 m 0,18.434 c -6.348,0 -11.513,-5.165 -11.513,-11.514 0,-6.349 5.165,-11.513 11.513,-11.513 6.349,0 11.514,5.164 11.514,11.513 0,6.349 -5.165,11.514 -11.514,11.514"
         style="fill:#3e3e3e;fill-opacity:1;fill-rule:nonzero;stroke:none"
         id="path346" />
    </g>
    <g
       id="g348"
       transform="translate(1353.0459,268.9238)"
       clip-path="url(#clipPath1442)">
      <path
         d="m 0,0 c 0,-3.816 -3.105,-6.921 -6.921,-6.921 -3.816,0 -6.92,3.105 -6.92,6.921 0,3.815 3.104,6.92 6.92,6.92 C -3.105,6.92 0,3.815 0,0 m -18.434,0 c 0,-6.349 5.164,-11.514 11.513,-11.514 6.348,0 11.514,5.165 11.514,11.514 0,6.349 -5.166,11.513 -11.514,11.513 -6.349,0 -11.513,-5.164 -11.513,-11.513"
         style="fill:#3e3e3e;fill-opacity:1;fill-rule:nonzero;stroke:none"
         id="path350" />
    </g>
    <path
       d="m 1419.009,354.129 h -21.156 v 46.907 h 21.156 z m -46.906,46.907 h 21.157 v -46.907 h -21.157 z m 16.298,15.413 c 0.885,0.342 1.468,1.194 1.468,2.142 v 9.521 h 11.373 v -9.521 c 0,-0.948 0.583,-1.8 1.468,-2.142 l 16.299,-6.311 v -4.508 h -46.906 v 4.508 z M 1355.432,291.61 c -2.872,1.183 -6.014,1.84 -9.307,1.84 -12.749,0 -23.253,-9.779 -24.415,-22.23 h -45.21 c -1.162,12.451 -11.666,22.23 -24.416,22.23 -4.438,0 -8.602,-1.191 -12.197,-3.263 v 21.558 h 108.463 l 7.082,-12.788 z m 10.626,-22.686 c 0,-10.992 -8.942,-19.934 -19.933,-19.934 -10.992,0 -19.934,8.942 -19.934,19.934 0,10.991 8.942,19.932 19.934,19.932 10.991,0 19.933,-8.941 19.933,-19.932 m -113.974,-19.935 c -10.991,0 -19.933,8.943 -19.933,19.935 0,10.991 8.942,19.932 19.933,19.932 10.992,0 19.934,-8.941 19.934,-19.932 0,-10.992 -8.942,-19.935 -19.934,-19.935 m -12.197,98.866 h 26.301 c 2.589,-0.176 4.47,-0.346 6.267,-4.711 2.319,-5.277 8.6,-20.22 11.362,-26.806 h -43.93 z m 95.845,65.789 -5.972,5.152 v 9.316 h 17.646 V 316.338 h -10.877 v 95.567 c 0,0.668 -0.291,1.303 -0.797,1.739 m 86.403,0.209 -16.3,6.311 v 10.244 c 0,1.269 -1.028,2.297 -2.297,2.297 h -76.074 c -1.269,0 -2.297,-1.028 -2.297,-2.297 v -12.664 c 0,-0.668 0.291,-1.303 0.797,-1.738 l 5.973,-5.153 v -94.515 h -43.139 c -2.144,5.114 -9.557,22.782 -12.117,28.603 -2.879,6.999 -7.321,7.302 -10.259,7.502 -0.052,0.004 -0.104,0.005 -0.156,0.005 h -28.676 c -1.269,0 -2.297,-1.027 -2.297,-2.296 v -63.376 c -4.756,-4.475 -7.734,-10.821 -7.734,-17.852 0,-13.525 11.002,-24.528 24.525,-24.528 12.75,0 23.254,9.781 24.416,22.231 h 45.21 c 1.162,-12.45 11.666,-22.23 24.415,-22.23 13.523,0 24.526,11.002 24.526,24.527 0,8.366 -4.213,15.763 -10.627,20.191 v 10.436 c 0,0.388 -0.098,0.772 -0.287,1.112 l -7.738,13.973 v 113.476 h 33.277 v -7.948 l -16.299,-6.311 c -0.884,-0.342 -1.467,-1.194 -1.467,-2.142 v -59.879 c 0,-1.268 1.027,-2.296 2.296,-2.296 h 51.5 c 1.268,0 2.296,1.028 2.296,2.296 v 59.879 c 0,0.948 -0.583,1.8 -1.467,2.142"
       style="fill:#3e3e3e;fill-opacity:1;fill-rule:nonzero;stroke:none"
       id="path352"
       clip-path="url(#clipPath1436)" />
  </g>
</svg>
